%TF.GenerationSoftware,KiCad,Pcbnew,10.0.3*%
%TF.CreationDate,2026-06-28T23:11:08+03:00*%
%TF.ProjectId,LCD_Project,4c43445f-5072-46f6-9a65-63742e6b6963,rev?*%
%TF.SameCoordinates,Original*%
%TF.FileFunction,Soldermask,Top*%
%TF.FilePolarity,Negative*%
%FSLAX46Y46*%
G04 Gerber Fmt 4.6, Leading zero omitted, Abs format (unit mm)*
G04 Created by KiCad (PCBNEW 10.0.3) date 2026-06-28 23:11:08*
%MOMM*%
%LPD*%
G01*
G04 APERTURE LIST*
G04 Aperture macros list*
%AMRoundRect*
0 Rectangle with rounded corners*
0 $1 Rounding radius*
0 $2 $3 $4 $5 $6 $7 $8 $9 X,Y pos of 4 corners*
0 Add a 4 corners polygon primitive as box body*
4,1,4,$2,$3,$4,$5,$6,$7,$8,$9,$2,$3,0*
0 Add four circle primitives for the rounded corners*
1,1,$1+$1,$2,$3*
1,1,$1+$1,$4,$5*
1,1,$1+$1,$6,$7*
1,1,$1+$1,$8,$9*
0 Add four rect primitives between the rounded corners*
20,1,$1+$1,$2,$3,$4,$5,0*
20,1,$1+$1,$4,$5,$6,$7,0*
20,1,$1+$1,$6,$7,$8,$9,0*
20,1,$1+$1,$8,$9,$2,$3,0*%
G04 Aperture macros list end*
%ADD10RoundRect,0.150000X-0.587500X-0.150000X0.587500X-0.150000X0.587500X0.150000X-0.587500X0.150000X0*%
%ADD11O,3.000000X2.500000*%
%ADD12R,1.800000X1.800000*%
%ADD13C,1.800000*%
%ADD14C,1.600000*%
%ADD15C,1.440000*%
%ADD16C,2.000000*%
%ADD17R,2.000000X2.000000*%
%ADD18C,4.000000*%
%ADD19R,1.800000X2.600000*%
%ADD20O,1.800000X2.600000*%
%ADD21RoundRect,0.137500X-0.600000X-0.137500X0.600000X-0.137500X0.600000X0.137500X-0.600000X0.137500X0*%
%ADD22RoundRect,0.137500X-0.137500X-0.600000X0.137500X-0.600000X0.137500X0.600000X-0.137500X0.600000X0*%
%ADD23C,1.500000*%
G04 APERTURE END LIST*
D10*
%TO.C,U1*%
X120625000Y-116800000D03*
X120625000Y-118700000D03*
X122500000Y-117750000D03*
%TD*%
D11*
%TO.C,DOWN1*%
X143250000Y-148500000D03*
X155750000Y-148500000D03*
X143250000Y-153500000D03*
X155750000Y-153500000D03*
%TD*%
D12*
%TO.C,D1*%
X89710000Y-141500000D03*
D13*
X92250000Y-141500000D03*
%TD*%
D14*
%TO.C,C1*%
X198250000Y-130250000D03*
X203250000Y-130250000D03*
%TD*%
D15*
%TO.C,R4*%
X231500000Y-97500000D03*
X228960000Y-97500000D03*
X226420000Y-97500000D03*
%TD*%
D11*
%TO.C,SELECT1*%
X119500000Y-128250000D03*
X132000000Y-128250000D03*
X119500000Y-133250000D03*
X132000000Y-133250000D03*
%TD*%
D14*
%TO.C,C2*%
X197750000Y-140500000D03*
X202750000Y-140500000D03*
%TD*%
D16*
%TO.C,SAVE/INCREASE1*%
X146000000Y-130500000D03*
X152500000Y-130500000D03*
X146000000Y-135000000D03*
X152500000Y-135000000D03*
%TD*%
D14*
%TO.C,R3*%
X59130000Y-114500000D03*
X66750000Y-114500000D03*
%TD*%
D17*
%TO.C,BZ1*%
X220900000Y-143000000D03*
D16*
X228500000Y-143000000D03*
%TD*%
D18*
%TO.C,DS1*%
X88748980Y-44999860D03*
X88748980Y-82000040D03*
X203750020Y-44999860D03*
X203750020Y-82000040D03*
D19*
X158149400Y-43999100D03*
D20*
X160689400Y-43999100D03*
X163229400Y-43999100D03*
X165769400Y-43999100D03*
X168309400Y-43999100D03*
X170849400Y-43999100D03*
X173389400Y-43999100D03*
X175929400Y-43999100D03*
X178469400Y-43999100D03*
X181009400Y-43999100D03*
X183549400Y-43999100D03*
X186089400Y-43999100D03*
X188629400Y-43999100D03*
X191169400Y-43999100D03*
X193709400Y-43999100D03*
X196249400Y-43999100D03*
%TD*%
D12*
%TO.C,D2*%
X63250000Y-141500000D03*
D13*
X65790000Y-141500000D03*
%TD*%
D14*
%TO.C,R1*%
X74250000Y-114500000D03*
X81870000Y-114500000D03*
%TD*%
D16*
%TO.C,MENU1*%
X170750000Y-128500000D03*
X177250000Y-128500000D03*
X170750000Y-133000000D03*
X177250000Y-133000000D03*
%TD*%
%TO.C,UP1*%
X145750000Y-115000000D03*
X152250000Y-115000000D03*
X145750000Y-119500000D03*
X152250000Y-119500000D03*
%TD*%
D14*
%TO.C,R2*%
X88500000Y-114500000D03*
X96120000Y-114500000D03*
%TD*%
D21*
%TO.C,U2*%
X104687500Y-93837500D03*
X104687500Y-94637500D03*
X104687500Y-95437500D03*
X104687500Y-96237500D03*
X104687500Y-97037500D03*
X104687500Y-97837500D03*
X104687500Y-98637500D03*
X104687500Y-99437500D03*
X104687500Y-100237500D03*
X104687500Y-101037500D03*
X104687500Y-101837500D03*
D22*
X106350000Y-103500000D03*
X107150000Y-103500000D03*
X107950000Y-103500000D03*
X108750000Y-103500000D03*
X109550000Y-103500000D03*
X110350000Y-103500000D03*
X111150000Y-103500000D03*
X111950000Y-103500000D03*
X112750000Y-103500000D03*
X113550000Y-103500000D03*
X114350000Y-103500000D03*
D21*
X116012500Y-101837500D03*
X116012500Y-101037500D03*
X116012500Y-100237500D03*
X116012500Y-99437500D03*
X116012500Y-98637500D03*
X116012500Y-97837500D03*
X116012500Y-97037500D03*
X116012500Y-96237500D03*
X116012500Y-95437500D03*
X116012500Y-94637500D03*
X116012500Y-93837500D03*
D22*
X114350000Y-92175000D03*
X113550000Y-92175000D03*
X112750000Y-92175000D03*
X111950000Y-92175000D03*
X111150000Y-92175000D03*
X110350000Y-92175000D03*
X109550000Y-92175000D03*
X108750000Y-92175000D03*
X107950000Y-92175000D03*
X107150000Y-92175000D03*
X106350000Y-92175000D03*
%TD*%
D23*
%TO.C,Y1*%
X184620000Y-98500000D03*
X189500000Y-98500000D03*
%TD*%
M02*
