%TF.GenerationSoftware,KiCad,Pcbnew,10.0.3*%
%TF.CreationDate,2026-06-28T23:11:08+03:00*%
%TF.ProjectId,LCD_Project,4c43445f-5072-46f6-9a65-63742e6b6963,rev?*%
%TF.SameCoordinates,Original*%
%TF.FileFunction,Soldermask,Bot*%
%TF.FilePolarity,Negative*%
%FSLAX46Y46*%
G04 Gerber Fmt 4.6, Leading zero omitted, Abs format (unit mm)*
G04 Created by KiCad (PCBNEW 10.0.3) date 2026-06-28 23:11:08*
%MOMM*%
%LPD*%
G01*
G04 APERTURE LIST*
%ADD10O,3.000000X2.500000*%
%ADD11R,1.800000X1.800000*%
%ADD12C,1.800000*%
%ADD13C,1.600000*%
%ADD14C,1.440000*%
%ADD15C,2.000000*%
%ADD16R,2.000000X2.000000*%
%ADD17C,4.000000*%
%ADD18R,1.800000X2.600000*%
%ADD19O,1.800000X2.600000*%
%ADD20C,1.500000*%
G04 APERTURE END LIST*
D10*
%TO.C,DOWN1*%
X143250000Y-148500000D03*
X155750000Y-148500000D03*
X143250000Y-153500000D03*
X155750000Y-153500000D03*
%TD*%
D11*
%TO.C,D1*%
X89710000Y-141500000D03*
D12*
X92250000Y-141500000D03*
%TD*%
D13*
%TO.C,C1*%
X198250000Y-130250000D03*
X203250000Y-130250000D03*
%TD*%
D14*
%TO.C,R4*%
X231500000Y-97500000D03*
X228960000Y-97500000D03*
X226420000Y-97500000D03*
%TD*%
D10*
%TO.C,SELECT1*%
X119500000Y-128250000D03*
X132000000Y-128250000D03*
X119500000Y-133250000D03*
X132000000Y-133250000D03*
%TD*%
D13*
%TO.C,C2*%
X197750000Y-140500000D03*
X202750000Y-140500000D03*
%TD*%
D15*
%TO.C,SAVE/INCREASE1*%
X146000000Y-130500000D03*
X152500000Y-130500000D03*
X146000000Y-135000000D03*
X152500000Y-135000000D03*
%TD*%
D13*
%TO.C,R3*%
X59130000Y-114500000D03*
X66750000Y-114500000D03*
%TD*%
D16*
%TO.C,BZ1*%
X220900000Y-143000000D03*
D15*
X228500000Y-143000000D03*
%TD*%
D17*
%TO.C,DS1*%
X88748980Y-44999860D03*
X88748980Y-82000040D03*
X203750020Y-44999860D03*
X203750020Y-82000040D03*
D18*
X158149400Y-43999100D03*
D19*
X160689400Y-43999100D03*
X163229400Y-43999100D03*
X165769400Y-43999100D03*
X168309400Y-43999100D03*
X170849400Y-43999100D03*
X173389400Y-43999100D03*
X175929400Y-43999100D03*
X178469400Y-43999100D03*
X181009400Y-43999100D03*
X183549400Y-43999100D03*
X186089400Y-43999100D03*
X188629400Y-43999100D03*
X191169400Y-43999100D03*
X193709400Y-43999100D03*
X196249400Y-43999100D03*
%TD*%
D11*
%TO.C,D2*%
X63250000Y-141500000D03*
D12*
X65790000Y-141500000D03*
%TD*%
D13*
%TO.C,R1*%
X74250000Y-114500000D03*
X81870000Y-114500000D03*
%TD*%
D15*
%TO.C,MENU1*%
X170750000Y-128500000D03*
X177250000Y-128500000D03*
X170750000Y-133000000D03*
X177250000Y-133000000D03*
%TD*%
%TO.C,UP1*%
X145750000Y-115000000D03*
X152250000Y-115000000D03*
X145750000Y-119500000D03*
X152250000Y-119500000D03*
%TD*%
D13*
%TO.C,R2*%
X88500000Y-114500000D03*
X96120000Y-114500000D03*
%TD*%
D20*
%TO.C,Y1*%
X184620000Y-98500000D03*
X189500000Y-98500000D03*
%TD*%
M02*
