%TF.GenerationSoftware,KiCad,Pcbnew,10.0.3*%
%TF.CreationDate,2026-06-28T23:11:08+03:00*%
%TF.ProjectId,LCD_Project,4c43445f-5072-46f6-9a65-63742e6b6963,rev?*%
%TF.SameCoordinates,Original*%
%TF.FileFunction,Copper,L2,Bot*%
%TF.FilePolarity,Positive*%
%FSLAX46Y46*%
G04 Gerber Fmt 4.6, Leading zero omitted, Abs format (unit mm)*
G04 Created by KiCad (PCBNEW 10.0.3) date 2026-06-28 23:11:08*
%MOMM*%
%LPD*%
G01*
G04 APERTURE LIST*
%TA.AperFunction,ComponentPad*%
%ADD10O,3.000000X2.500000*%
%TD*%
%TA.AperFunction,ComponentPad*%
%ADD11R,1.800000X1.800000*%
%TD*%
%TA.AperFunction,ComponentPad*%
%ADD12C,1.800000*%
%TD*%
%TA.AperFunction,ComponentPad*%
%ADD13C,1.600000*%
%TD*%
%TA.AperFunction,ComponentPad*%
%ADD14C,1.440000*%
%TD*%
%TA.AperFunction,ComponentPad*%
%ADD15C,2.000000*%
%TD*%
%TA.AperFunction,ComponentPad*%
%ADD16R,2.000000X2.000000*%
%TD*%
%TA.AperFunction,ComponentPad*%
%ADD17C,4.000000*%
%TD*%
%TA.AperFunction,ComponentPad*%
%ADD18R,1.800000X2.600000*%
%TD*%
%TA.AperFunction,ComponentPad*%
%ADD19O,1.800000X2.600000*%
%TD*%
%TA.AperFunction,ComponentPad*%
%ADD20C,1.500000*%
%TD*%
%TA.AperFunction,ViaPad*%
%ADD21C,0.600000*%
%TD*%
%TA.AperFunction,Conductor*%
%ADD22C,0.200000*%
%TD*%
G04 APERTURE END LIST*
D10*
%TO.P,DOWN1,1,1_1*%
%TO.N,Net-(U2-PA2)*%
X143250000Y-148500000D03*
X155750000Y-148500000D03*
%TO.P,DOWN1,2,2_2*%
%TO.N,GND*%
X143250000Y-153500000D03*
X155750000Y-153500000D03*
%TD*%
D11*
%TO.P,D1,1,K_1*%
%TO.N,GND*%
X89710000Y-141500000D03*
D12*
%TO.P,D1,2,A_2*%
%TO.N,Net-(D1-A)*%
X92250000Y-141500000D03*
%TD*%
D13*
%TO.P,C1,1*%
%TO.N,Net-(U2-XTAL1)*%
X198250000Y-130250000D03*
%TO.P,C1,2*%
%TO.N,GND*%
X203250000Y-130250000D03*
%TD*%
D14*
%TO.P,R4,1,1_1*%
%TO.N,Net-(DS1-Vo)*%
X231500000Y-97500000D03*
%TO.P,R4,2,2_2*%
%TO.N,unconnected-(R4-Pad2)*%
X228960000Y-97500000D03*
%TO.P,R4,3,3_3*%
%TO.N,+5V*%
X226420000Y-97500000D03*
%TD*%
D10*
%TO.P,SELECT1,1,1_1*%
%TO.N,Net-(U2-PA3)*%
X119500000Y-128250000D03*
X132000000Y-128250000D03*
%TO.P,SELECT1,2,2_2*%
%TO.N,GND*%
X119500000Y-133250000D03*
X132000000Y-133250000D03*
%TD*%
D13*
%TO.P,C2,1*%
%TO.N,Net-(U2-XTAL2)*%
X197750000Y-140500000D03*
%TO.P,C2,2*%
%TO.N,GND*%
X202750000Y-140500000D03*
%TD*%
D15*
%TO.P,SAVE/INCREASE1,1,1_1*%
%TO.N,Net-(U2-PA4)*%
X146000000Y-130500000D03*
X152500000Y-130500000D03*
%TO.P,SAVE/INCREASE1,2,2_2*%
%TO.N,GND*%
X146000000Y-135000000D03*
X152500000Y-135000000D03*
%TD*%
D13*
%TO.P,R3,1*%
%TO.N,Net-(D2-A)*%
X59130000Y-114500000D03*
%TO.P,R3,2*%
%TO.N,Net-(U2-PB1)*%
X66750000Y-114500000D03*
%TD*%
D16*
%TO.P,BZ1,1,+_1*%
%TO.N,Net-(BZ1-+)*%
X220900000Y-143000000D03*
D15*
%TO.P,BZ1,2,-_2*%
%TO.N,GND*%
X228500000Y-143000000D03*
%TD*%
D17*
%TO.P,DS1,*%
%TO.N,*%
X88748980Y-44999860D03*
X88748980Y-82000040D03*
X203750020Y-44999860D03*
X203750020Y-82000040D03*
D18*
%TO.P,DS1,1,LEDK_1*%
%TO.N,unconnected-(DS1-LEDK-Pad1)*%
X158149400Y-43999100D03*
D19*
%TO.P,DS1,2,LEDA_2*%
%TO.N,unconnected-(DS1-LEDA-Pad2)*%
X160689400Y-43999100D03*
%TO.P,DS1,3,VSS_3*%
%TO.N,unconnected-(DS1-VSS-Pad3)*%
X163229400Y-43999100D03*
%TO.P,DS1,4,VDD_4*%
%TO.N,unconnected-(DS1-VDD-Pad4)*%
X165769400Y-43999100D03*
%TO.P,DS1,5,Vo_5*%
%TO.N,Net-(DS1-Vo)*%
X168309400Y-43999100D03*
%TO.P,DS1,6,RS_6*%
%TO.N,Net-(DS1-RS)*%
X170849400Y-43999100D03*
%TO.P,DS1,7,R/~{W}_7*%
%TO.N,unconnected-(DS1-R{slash}~{W}-Pad7)*%
X173389400Y-43999100D03*
%TO.P,DS1,8,E_8*%
%TO.N,Net-(DS1-E)*%
X175929400Y-43999100D03*
%TO.P,DS1,9,DB0_9*%
%TO.N,unconnected-(DS1-DB0-Pad9)*%
X178469400Y-43999100D03*
%TO.P,DS1,10,DB1_10*%
%TO.N,unconnected-(DS1-DB1-Pad10)*%
X181009400Y-43999100D03*
%TO.P,DS1,11,DB2_11*%
%TO.N,unconnected-(DS1-DB2-Pad11)*%
X183549400Y-43999100D03*
%TO.P,DS1,12,DB3_12*%
%TO.N,unconnected-(DS1-DB3-Pad12)*%
X186089400Y-43999100D03*
%TO.P,DS1,13,DB4_13*%
%TO.N,Net-(DS1-DB4)*%
X188629400Y-43999100D03*
%TO.P,DS1,14,DB5_14*%
%TO.N,Net-(DS1-DB5)*%
X191169400Y-43999100D03*
%TO.P,DS1,15,DB6_15*%
%TO.N,Net-(DS1-DB6)*%
X193709400Y-43999100D03*
%TO.P,DS1,16,DB7_16*%
%TO.N,Net-(DS1-DB7)*%
X196249400Y-43999100D03*
%TD*%
D11*
%TO.P,D2,1,K_1*%
%TO.N,GND*%
X63250000Y-141500000D03*
D12*
%TO.P,D2,2,A_2*%
%TO.N,Net-(D2-A)*%
X65790000Y-141500000D03*
%TD*%
D13*
%TO.P,R1,1*%
%TO.N,+5V*%
X74250000Y-114500000D03*
%TO.P,R1,2*%
%TO.N,Net-(U1-~{RESET})*%
X81870000Y-114500000D03*
%TD*%
D15*
%TO.P,MENU1,1,1_1*%
%TO.N,Net-(U2-PA0)*%
X170750000Y-128500000D03*
X177250000Y-128500000D03*
%TO.P,MENU1,2,2_2*%
%TO.N,GND*%
X170750000Y-133000000D03*
X177250000Y-133000000D03*
%TD*%
%TO.P,UP1,1,1_1*%
%TO.N,Net-(U2-PA1)*%
X145750000Y-115000000D03*
X152250000Y-115000000D03*
%TO.P,UP1,2,2_2*%
%TO.N,GND*%
X145750000Y-119500000D03*
X152250000Y-119500000D03*
%TD*%
D13*
%TO.P,R2,1*%
%TO.N,Net-(D1-A)*%
X88500000Y-114500000D03*
%TO.P,R2,2*%
%TO.N,Net-(U2-PB0)*%
X96120000Y-114500000D03*
%TD*%
D20*
%TO.P,Y1,1,1_1*%
%TO.N,Net-(U2-XTAL1)*%
X184620000Y-98500000D03*
%TO.P,Y1,2,2_2*%
%TO.N,Net-(U2-XTAL2)*%
X189500000Y-98500000D03*
%TD*%
D21*
%TO.N,GND*%
X118253200Y-116323800D03*
%TO.N,Net-(U2-PA2)*%
X113550100Y-93894900D03*
%TO.N,Net-(U2-PA3)*%
X114242500Y-93415800D03*
%TO.N,Net-(U2-XTAL2)*%
X114717400Y-94210400D03*
X112715500Y-98816500D03*
%TO.N,Net-(U2-PA4)*%
X121555700Y-93012100D03*
%TO.N,Net-(BZ1-+)*%
X207955300Y-90321300D03*
%TO.N,Net-(DS1-RS)*%
X137203200Y-105738200D03*
%TO.N,Net-(DS1-E)*%
X154017100Y-105192100D03*
%TO.N,Net-(DS1-DB4)*%
X177412200Y-104587700D03*
%TO.N,Net-(DS1-DB5)*%
X179246500Y-103500000D03*
%TO.N,Net-(DS1-DB6)*%
X179985100Y-101837500D03*
%TO.N,Net-(DS1-DB7)*%
X180600700Y-101037500D03*
%TO.N,Net-(U2-PA0)*%
X158010500Y-90923700D03*
%TO.N,Net-(U2-PA1)*%
X112870900Y-93427700D03*
%TO.N,Net-(U2-PB0)*%
X106637800Y-93909500D03*
%TD*%
%TO.N,GND*%
D22*
X119500000Y-133250000D02*
X119500000Y-131698300D01*
X143250000Y-153500000D02*
X143250000Y-151948300D01*
X146000000Y-149198300D02*
X143250000Y-151948300D01*
X151184000Y-120566000D02*
X152250000Y-119500000D01*
X117642600Y-129840900D02*
X117642600Y-116934400D01*
X152500000Y-135000000D02*
X151184000Y-133684000D01*
X203250000Y-140000000D02*
X203250000Y-130250000D01*
X146000000Y-135000000D02*
X146000000Y-149198300D01*
X117642600Y-116934400D02*
X118253200Y-116323800D01*
X151184000Y-133684000D02*
X151184000Y-120566000D01*
X202750000Y-140500000D02*
X203250000Y-140000000D01*
X119500000Y-131698300D02*
X117642600Y-129840900D01*
%TO.N,Net-(U2-PA2)*%
X113550100Y-93202500D02*
X113550100Y-93894900D01*
X114712700Y-92786800D02*
X113965800Y-92786800D01*
X143250000Y-148500000D02*
X143250000Y-146948300D01*
X121155500Y-124853800D02*
X121155500Y-99229600D01*
X143250000Y-146948300D02*
X121155500Y-124853800D01*
X113965800Y-92786800D02*
X113550100Y-93202500D01*
X121155500Y-99229600D02*
X114712700Y-92786800D01*
%TO.N,Net-(D1-A)*%
X92250000Y-118250000D02*
X92250000Y-141500000D01*
X88500000Y-114500000D02*
X92250000Y-118250000D01*
%TO.N,Net-(U2-XTAL1)*%
X198250000Y-105654400D02*
X198250000Y-130250000D01*
X184620000Y-98500000D02*
X185708100Y-97411900D01*
X185708100Y-97411900D02*
X190007500Y-97411900D01*
X190007500Y-97411900D02*
X198250000Y-105654400D01*
%TO.N,Net-(DS1-Vo)*%
X173887200Y-45600800D02*
X170351600Y-45600800D01*
X231500000Y-77085000D02*
X196774400Y-42359400D01*
X231500000Y-97500000D02*
X231500000Y-77085000D01*
X175400900Y-42359400D02*
X174591100Y-43169200D01*
X168309400Y-43999100D02*
X169511100Y-43999100D01*
X196774400Y-42359400D02*
X175400900Y-42359400D01*
X169511100Y-44760300D02*
X169511100Y-43999100D01*
X170351600Y-45600800D02*
X169511100Y-44760300D01*
X174591100Y-43169200D02*
X174591100Y-44896900D01*
X174591100Y-44896900D02*
X173887200Y-45600800D01*
%TO.N,Net-(U2-PA3)*%
X114435400Y-93608700D02*
X114242500Y-93415800D01*
X119500000Y-98673300D02*
X115319100Y-94492400D01*
X114966600Y-93608700D02*
X114435400Y-93608700D01*
X119500000Y-128250000D02*
X119500000Y-98673300D01*
X115319100Y-94492400D02*
X115319100Y-93961200D01*
X115319100Y-93961200D02*
X114966600Y-93608700D01*
%TO.N,Net-(U2-XTAL2)*%
X189500000Y-98500000D02*
X189500000Y-132250000D01*
X114717400Y-94210400D02*
X112715500Y-96212300D01*
X189500000Y-132250000D02*
X197750000Y-140500000D01*
X112715500Y-96212300D02*
X112715500Y-98816500D01*
%TO.N,Net-(U2-PA4)*%
X121604500Y-93060900D02*
X121555700Y-93012100D01*
X121604600Y-106104600D02*
X121604600Y-93060900D01*
X146000000Y-130500000D02*
X121604600Y-106104600D01*
X121604600Y-93060900D02*
X121604500Y-93060900D01*
%TO.N,Net-(D2-A)*%
X65790000Y-121160000D02*
X65790000Y-141500000D01*
X59130000Y-114500000D02*
X65790000Y-121160000D01*
%TO.N,Net-(BZ1-+)*%
X220900000Y-103266000D02*
X207955300Y-90321300D01*
X220900000Y-143000000D02*
X220900000Y-103266000D01*
%TO.N,Net-(DS1-RS)*%
X137203200Y-81791000D02*
X167039400Y-51954800D01*
X169230100Y-42379800D02*
X170849400Y-43999100D01*
X137203200Y-105738200D02*
X137203200Y-81791000D01*
X167039400Y-43092100D02*
X167751700Y-42379800D01*
X167751700Y-42379800D02*
X169230100Y-42379800D01*
X167039400Y-51954800D02*
X167039400Y-43092100D01*
%TO.N,Net-(DS1-E)*%
X154017100Y-67513100D02*
X154017100Y-105192100D01*
X175929400Y-45600800D02*
X154017100Y-67513100D01*
X175929400Y-43999100D02*
X175929400Y-45600800D01*
%TO.N,Net-(DS1-DB4)*%
X187427700Y-43999100D02*
X187427700Y-48584100D01*
X187427700Y-48584100D02*
X177412200Y-58599600D01*
X188629400Y-43999100D02*
X187427700Y-43999100D01*
X177412200Y-58599600D02*
X177412200Y-104587700D01*
%TO.N,Net-(DS1-DB5)*%
X191169400Y-45610600D02*
X179246500Y-57533500D01*
X179246500Y-57533500D02*
X179246500Y-103500000D01*
X191169400Y-43999100D02*
X191169400Y-45610600D01*
%TO.N,Net-(DS1-DB6)*%
X179985100Y-57723400D02*
X179985100Y-101837500D01*
X192507700Y-43999100D02*
X192507700Y-45200800D01*
X192507700Y-45200800D02*
X179985100Y-57723400D01*
X193709400Y-43999100D02*
X192507700Y-43999100D01*
%TO.N,Net-(DS1-DB7)*%
X180600700Y-59647800D02*
X180600700Y-101037500D01*
X195047700Y-45200800D02*
X180600700Y-59647800D01*
X196249400Y-43999100D02*
X195047700Y-43999100D01*
X195047700Y-43999100D02*
X195047700Y-45200800D01*
%TO.N,Net-(U2-PA0)*%
X170750000Y-128500000D02*
X170750000Y-103663200D01*
X170750000Y-103663200D02*
X158010500Y-90923700D01*
%TO.N,Net-(U2-PA1)*%
X112870900Y-93285700D02*
X113795200Y-92361400D01*
X113795200Y-92361400D02*
X122975600Y-92361400D01*
X122975600Y-92361400D02*
X145614200Y-115000000D01*
X112870900Y-93427700D02*
X112870900Y-93285700D01*
X145614200Y-115000000D02*
X145750000Y-115000000D01*
%TO.N,Net-(U2-PB0)*%
X96120000Y-114500000D02*
X106637800Y-103982200D01*
X106637800Y-103982200D02*
X106637800Y-93909500D01*
%TD*%
M02*
