M48
; DRILL file KiCad 10.0.3 date 2026-06-28T23:10:51
; FORMAT={-:-/ absolute / metric / decimal}
; #@! TF.CreationDate,2026-06-28T23:10:51+03:00
; #@! TF.GenerationSoftware,Kicad,Pcbnew,10.0.3
; #@! TF.FileFunction,Plated,1,2,PTH
FMAT,2
METRIC
; #@! TA.AperFunction,Plated,PTH,ViaDrill
T1C0.300
; #@! TA.AperFunction,Plated,PTH,ComponentDrill
T2C0.800
; #@! TA.AperFunction,Plated,PTH,ComponentDrill
T3C0.900
; #@! TA.AperFunction,Plated,PTH,ComponentDrill
T4C1.000
; #@! TA.AperFunction,Plated,PTH,ComponentDrill
T5C1.100
; #@! TA.AperFunction,Plated,PTH,ComponentDrill
T6C1.200
; #@! TA.AperFunction,Plated,PTH,ComponentDrill
T7C3.500
%
G90
G05
T1
X106.638Y-93.909
X112.715Y-98.816
X112.871Y-93.428
X113.55Y-93.895
X114.242Y-93.416
X114.717Y-94.21
X118.253Y-116.324
X121.556Y-93.012
X137.203Y-105.738
X154.017Y-105.192
X158.01Y-90.924
X177.412Y-104.588
X179.246Y-103.5
X179.985Y-101.837
X180.601Y-101.037
X207.955Y-90.321
T2
X59.13Y-114.5
X66.75Y-114.5
X74.25Y-114.5
X81.87Y-114.5
X88.5Y-114.5
X96.12Y-114.5
X184.62Y-98.5
X189.5Y-98.5
X197.75Y-140.5
X198.25Y-130.25
X202.75Y-140.5
X203.25Y-130.25
X226.42Y-97.5
X228.96Y-97.5
X231.5Y-97.5
T3
X63.25Y-141.5
X65.79Y-141.5
X89.71Y-141.5
X92.25Y-141.5
T4
X220.9Y-143.0
X228.5Y-143.0
T5
X145.75Y-115.0
X145.75Y-119.5
X146.0Y-130.5
X146.0Y-135.0
X152.25Y-115.0
X152.25Y-119.5
X152.5Y-130.5
X152.5Y-135.0
X170.75Y-128.5
X170.75Y-133.0
X177.25Y-128.5
X177.25Y-133.0
T6
X119.5Y-128.25
X119.5Y-133.25
X132.0Y-128.25
X132.0Y-133.25
X143.25Y-148.5
X143.25Y-153.5
X155.75Y-148.5
X155.75Y-153.5
X158.149Y-43.999
X160.689Y-43.999
X163.229Y-43.999
X165.769Y-43.999
X168.309Y-43.999
X170.849Y-43.999
X173.389Y-43.999
X175.929Y-43.999
X178.469Y-43.999
X181.009Y-43.999
X183.549Y-43.999
X186.089Y-43.999
X188.629Y-43.999
X191.169Y-43.999
X193.709Y-43.999
X196.249Y-43.999
T7
X88.749Y-45.0
X88.749Y-82.0
X203.75Y-45.0
X203.75Y-82.0
M30
