%TF.GenerationSoftware,KiCad,Pcbnew,10.0.3*%
%TF.CreationDate,2026-06-28T23:11:08+03:00*%
%TF.ProjectId,LCD_Project,4c43445f-5072-46f6-9a65-63742e6b6963,rev?*%
%TF.SameCoordinates,Original*%
%TF.FileFunction,Legend,Top*%
%TF.FilePolarity,Positive*%
%FSLAX46Y46*%
G04 Gerber Fmt 4.6, Leading zero omitted, Abs format (unit mm)*
G04 Created by KiCad (PCBNEW 10.0.3) date 2026-06-28 23:11:08*
%MOMM*%
%LPD*%
G01*
G04 APERTURE LIST*
%ADD10C,0.150000*%
%ADD11C,0.120000*%
G04 APERTURE END LIST*
D10*
X120800595Y-114804819D02*
X120800595Y-115614342D01*
X120800595Y-115614342D02*
X120848214Y-115709580D01*
X120848214Y-115709580D02*
X120895833Y-115757200D01*
X120895833Y-115757200D02*
X120991071Y-115804819D01*
X120991071Y-115804819D02*
X121181547Y-115804819D01*
X121181547Y-115804819D02*
X121276785Y-115757200D01*
X121276785Y-115757200D02*
X121324404Y-115709580D01*
X121324404Y-115709580D02*
X121372023Y-115614342D01*
X121372023Y-115614342D02*
X121372023Y-114804819D01*
X122372023Y-115804819D02*
X121800595Y-115804819D01*
X122086309Y-115804819D02*
X122086309Y-114804819D01*
X122086309Y-114804819D02*
X121991071Y-114947676D01*
X121991071Y-114947676D02*
X121895833Y-115042914D01*
X121895833Y-115042914D02*
X121800595Y-115090533D01*
X147242857Y-144294819D02*
X147242857Y-143294819D01*
X147242857Y-143294819D02*
X147480952Y-143294819D01*
X147480952Y-143294819D02*
X147623809Y-143342438D01*
X147623809Y-143342438D02*
X147719047Y-143437676D01*
X147719047Y-143437676D02*
X147766666Y-143532914D01*
X147766666Y-143532914D02*
X147814285Y-143723390D01*
X147814285Y-143723390D02*
X147814285Y-143866247D01*
X147814285Y-143866247D02*
X147766666Y-144056723D01*
X147766666Y-144056723D02*
X147719047Y-144151961D01*
X147719047Y-144151961D02*
X147623809Y-144247200D01*
X147623809Y-144247200D02*
X147480952Y-144294819D01*
X147480952Y-144294819D02*
X147242857Y-144294819D01*
X148433333Y-143294819D02*
X148623809Y-143294819D01*
X148623809Y-143294819D02*
X148719047Y-143342438D01*
X148719047Y-143342438D02*
X148814285Y-143437676D01*
X148814285Y-143437676D02*
X148861904Y-143628152D01*
X148861904Y-143628152D02*
X148861904Y-143961485D01*
X148861904Y-143961485D02*
X148814285Y-144151961D01*
X148814285Y-144151961D02*
X148719047Y-144247200D01*
X148719047Y-144247200D02*
X148623809Y-144294819D01*
X148623809Y-144294819D02*
X148433333Y-144294819D01*
X148433333Y-144294819D02*
X148338095Y-144247200D01*
X148338095Y-144247200D02*
X148242857Y-144151961D01*
X148242857Y-144151961D02*
X148195238Y-143961485D01*
X148195238Y-143961485D02*
X148195238Y-143628152D01*
X148195238Y-143628152D02*
X148242857Y-143437676D01*
X148242857Y-143437676D02*
X148338095Y-143342438D01*
X148338095Y-143342438D02*
X148433333Y-143294819D01*
X149195238Y-143294819D02*
X149433333Y-144294819D01*
X149433333Y-144294819D02*
X149623809Y-143580533D01*
X149623809Y-143580533D02*
X149814285Y-144294819D01*
X149814285Y-144294819D02*
X150052381Y-143294819D01*
X150433333Y-144294819D02*
X150433333Y-143294819D01*
X150433333Y-143294819D02*
X151004761Y-144294819D01*
X151004761Y-144294819D02*
X151004761Y-143294819D01*
X152004761Y-144294819D02*
X151433333Y-144294819D01*
X151719047Y-144294819D02*
X151719047Y-143294819D01*
X151719047Y-143294819D02*
X151623809Y-143437676D01*
X151623809Y-143437676D02*
X151528571Y-143532914D01*
X151528571Y-143532914D02*
X151433333Y-143580533D01*
X90241905Y-136394819D02*
X90241905Y-135394819D01*
X90241905Y-135394819D02*
X90480000Y-135394819D01*
X90480000Y-135394819D02*
X90622857Y-135442438D01*
X90622857Y-135442438D02*
X90718095Y-135537676D01*
X90718095Y-135537676D02*
X90765714Y-135632914D01*
X90765714Y-135632914D02*
X90813333Y-135823390D01*
X90813333Y-135823390D02*
X90813333Y-135966247D01*
X90813333Y-135966247D02*
X90765714Y-136156723D01*
X90765714Y-136156723D02*
X90718095Y-136251961D01*
X90718095Y-136251961D02*
X90622857Y-136347200D01*
X90622857Y-136347200D02*
X90480000Y-136394819D01*
X90480000Y-136394819D02*
X90241905Y-136394819D01*
X91765714Y-136394819D02*
X91194286Y-136394819D01*
X91480000Y-136394819D02*
X91480000Y-135394819D01*
X91480000Y-135394819D02*
X91384762Y-135537676D01*
X91384762Y-135537676D02*
X91289524Y-135632914D01*
X91289524Y-135632914D02*
X91194286Y-135680533D01*
X200583333Y-128109580D02*
X200535714Y-128157200D01*
X200535714Y-128157200D02*
X200392857Y-128204819D01*
X200392857Y-128204819D02*
X200297619Y-128204819D01*
X200297619Y-128204819D02*
X200154762Y-128157200D01*
X200154762Y-128157200D02*
X200059524Y-128061961D01*
X200059524Y-128061961D02*
X200011905Y-127966723D01*
X200011905Y-127966723D02*
X199964286Y-127776247D01*
X199964286Y-127776247D02*
X199964286Y-127633390D01*
X199964286Y-127633390D02*
X200011905Y-127442914D01*
X200011905Y-127442914D02*
X200059524Y-127347676D01*
X200059524Y-127347676D02*
X200154762Y-127252438D01*
X200154762Y-127252438D02*
X200297619Y-127204819D01*
X200297619Y-127204819D02*
X200392857Y-127204819D01*
X200392857Y-127204819D02*
X200535714Y-127252438D01*
X200535714Y-127252438D02*
X200583333Y-127300057D01*
X201535714Y-128204819D02*
X200964286Y-128204819D01*
X201250000Y-128204819D02*
X201250000Y-127204819D01*
X201250000Y-127204819D02*
X201154762Y-127347676D01*
X201154762Y-127347676D02*
X201059524Y-127442914D01*
X201059524Y-127442914D02*
X200964286Y-127490533D01*
X228793333Y-94294819D02*
X228460000Y-93818628D01*
X228221905Y-94294819D02*
X228221905Y-93294819D01*
X228221905Y-93294819D02*
X228602857Y-93294819D01*
X228602857Y-93294819D02*
X228698095Y-93342438D01*
X228698095Y-93342438D02*
X228745714Y-93390057D01*
X228745714Y-93390057D02*
X228793333Y-93485295D01*
X228793333Y-93485295D02*
X228793333Y-93628152D01*
X228793333Y-93628152D02*
X228745714Y-93723390D01*
X228745714Y-93723390D02*
X228698095Y-93771009D01*
X228698095Y-93771009D02*
X228602857Y-93818628D01*
X228602857Y-93818628D02*
X228221905Y-93818628D01*
X229650476Y-93628152D02*
X229650476Y-94294819D01*
X229412381Y-93247200D02*
X229174286Y-93961485D01*
X229174286Y-93961485D02*
X229793333Y-93961485D01*
X122897619Y-123997200D02*
X123040476Y-124044819D01*
X123040476Y-124044819D02*
X123278571Y-124044819D01*
X123278571Y-124044819D02*
X123373809Y-123997200D01*
X123373809Y-123997200D02*
X123421428Y-123949580D01*
X123421428Y-123949580D02*
X123469047Y-123854342D01*
X123469047Y-123854342D02*
X123469047Y-123759104D01*
X123469047Y-123759104D02*
X123421428Y-123663866D01*
X123421428Y-123663866D02*
X123373809Y-123616247D01*
X123373809Y-123616247D02*
X123278571Y-123568628D01*
X123278571Y-123568628D02*
X123088095Y-123521009D01*
X123088095Y-123521009D02*
X122992857Y-123473390D01*
X122992857Y-123473390D02*
X122945238Y-123425771D01*
X122945238Y-123425771D02*
X122897619Y-123330533D01*
X122897619Y-123330533D02*
X122897619Y-123235295D01*
X122897619Y-123235295D02*
X122945238Y-123140057D01*
X122945238Y-123140057D02*
X122992857Y-123092438D01*
X122992857Y-123092438D02*
X123088095Y-123044819D01*
X123088095Y-123044819D02*
X123326190Y-123044819D01*
X123326190Y-123044819D02*
X123469047Y-123092438D01*
X123897619Y-123521009D02*
X124230952Y-123521009D01*
X124373809Y-124044819D02*
X123897619Y-124044819D01*
X123897619Y-124044819D02*
X123897619Y-123044819D01*
X123897619Y-123044819D02*
X124373809Y-123044819D01*
X125278571Y-124044819D02*
X124802381Y-124044819D01*
X124802381Y-124044819D02*
X124802381Y-123044819D01*
X125611905Y-123521009D02*
X125945238Y-123521009D01*
X126088095Y-124044819D02*
X125611905Y-124044819D01*
X125611905Y-124044819D02*
X125611905Y-123044819D01*
X125611905Y-123044819D02*
X126088095Y-123044819D01*
X127088095Y-123949580D02*
X127040476Y-123997200D01*
X127040476Y-123997200D02*
X126897619Y-124044819D01*
X126897619Y-124044819D02*
X126802381Y-124044819D01*
X126802381Y-124044819D02*
X126659524Y-123997200D01*
X126659524Y-123997200D02*
X126564286Y-123901961D01*
X126564286Y-123901961D02*
X126516667Y-123806723D01*
X126516667Y-123806723D02*
X126469048Y-123616247D01*
X126469048Y-123616247D02*
X126469048Y-123473390D01*
X126469048Y-123473390D02*
X126516667Y-123282914D01*
X126516667Y-123282914D02*
X126564286Y-123187676D01*
X126564286Y-123187676D02*
X126659524Y-123092438D01*
X126659524Y-123092438D02*
X126802381Y-123044819D01*
X126802381Y-123044819D02*
X126897619Y-123044819D01*
X126897619Y-123044819D02*
X127040476Y-123092438D01*
X127040476Y-123092438D02*
X127088095Y-123140057D01*
X127373810Y-123044819D02*
X127945238Y-123044819D01*
X127659524Y-124044819D02*
X127659524Y-123044819D01*
X128802381Y-124044819D02*
X128230953Y-124044819D01*
X128516667Y-124044819D02*
X128516667Y-123044819D01*
X128516667Y-123044819D02*
X128421429Y-123187676D01*
X128421429Y-123187676D02*
X128326191Y-123282914D01*
X128326191Y-123282914D02*
X128230953Y-123330533D01*
X200083333Y-138359580D02*
X200035714Y-138407200D01*
X200035714Y-138407200D02*
X199892857Y-138454819D01*
X199892857Y-138454819D02*
X199797619Y-138454819D01*
X199797619Y-138454819D02*
X199654762Y-138407200D01*
X199654762Y-138407200D02*
X199559524Y-138311961D01*
X199559524Y-138311961D02*
X199511905Y-138216723D01*
X199511905Y-138216723D02*
X199464286Y-138026247D01*
X199464286Y-138026247D02*
X199464286Y-137883390D01*
X199464286Y-137883390D02*
X199511905Y-137692914D01*
X199511905Y-137692914D02*
X199559524Y-137597676D01*
X199559524Y-137597676D02*
X199654762Y-137502438D01*
X199654762Y-137502438D02*
X199797619Y-137454819D01*
X199797619Y-137454819D02*
X199892857Y-137454819D01*
X199892857Y-137454819D02*
X200035714Y-137502438D01*
X200035714Y-137502438D02*
X200083333Y-137550057D01*
X200464286Y-137550057D02*
X200511905Y-137502438D01*
X200511905Y-137502438D02*
X200607143Y-137454819D01*
X200607143Y-137454819D02*
X200845238Y-137454819D01*
X200845238Y-137454819D02*
X200940476Y-137502438D01*
X200940476Y-137502438D02*
X200988095Y-137550057D01*
X200988095Y-137550057D02*
X201035714Y-137645295D01*
X201035714Y-137645295D02*
X201035714Y-137740533D01*
X201035714Y-137740533D02*
X200988095Y-137883390D01*
X200988095Y-137883390D02*
X200416667Y-138454819D01*
X200416667Y-138454819D02*
X201035714Y-138454819D01*
X143083333Y-128907200D02*
X143226190Y-128954819D01*
X143226190Y-128954819D02*
X143464285Y-128954819D01*
X143464285Y-128954819D02*
X143559523Y-128907200D01*
X143559523Y-128907200D02*
X143607142Y-128859580D01*
X143607142Y-128859580D02*
X143654761Y-128764342D01*
X143654761Y-128764342D02*
X143654761Y-128669104D01*
X143654761Y-128669104D02*
X143607142Y-128573866D01*
X143607142Y-128573866D02*
X143559523Y-128526247D01*
X143559523Y-128526247D02*
X143464285Y-128478628D01*
X143464285Y-128478628D02*
X143273809Y-128431009D01*
X143273809Y-128431009D02*
X143178571Y-128383390D01*
X143178571Y-128383390D02*
X143130952Y-128335771D01*
X143130952Y-128335771D02*
X143083333Y-128240533D01*
X143083333Y-128240533D02*
X143083333Y-128145295D01*
X143083333Y-128145295D02*
X143130952Y-128050057D01*
X143130952Y-128050057D02*
X143178571Y-128002438D01*
X143178571Y-128002438D02*
X143273809Y-127954819D01*
X143273809Y-127954819D02*
X143511904Y-127954819D01*
X143511904Y-127954819D02*
X143654761Y-128002438D01*
X144035714Y-128669104D02*
X144511904Y-128669104D01*
X143940476Y-128954819D02*
X144273809Y-127954819D01*
X144273809Y-127954819D02*
X144607142Y-128954819D01*
X144797619Y-127954819D02*
X145130952Y-128954819D01*
X145130952Y-128954819D02*
X145464285Y-127954819D01*
X145797619Y-128431009D02*
X146130952Y-128431009D01*
X146273809Y-128954819D02*
X145797619Y-128954819D01*
X145797619Y-128954819D02*
X145797619Y-127954819D01*
X145797619Y-127954819D02*
X146273809Y-127954819D01*
X147416666Y-127907200D02*
X146559524Y-129192914D01*
X147750000Y-128954819D02*
X147750000Y-127954819D01*
X148226190Y-128954819D02*
X148226190Y-127954819D01*
X148226190Y-127954819D02*
X148797618Y-128954819D01*
X148797618Y-128954819D02*
X148797618Y-127954819D01*
X149845237Y-128859580D02*
X149797618Y-128907200D01*
X149797618Y-128907200D02*
X149654761Y-128954819D01*
X149654761Y-128954819D02*
X149559523Y-128954819D01*
X149559523Y-128954819D02*
X149416666Y-128907200D01*
X149416666Y-128907200D02*
X149321428Y-128811961D01*
X149321428Y-128811961D02*
X149273809Y-128716723D01*
X149273809Y-128716723D02*
X149226190Y-128526247D01*
X149226190Y-128526247D02*
X149226190Y-128383390D01*
X149226190Y-128383390D02*
X149273809Y-128192914D01*
X149273809Y-128192914D02*
X149321428Y-128097676D01*
X149321428Y-128097676D02*
X149416666Y-128002438D01*
X149416666Y-128002438D02*
X149559523Y-127954819D01*
X149559523Y-127954819D02*
X149654761Y-127954819D01*
X149654761Y-127954819D02*
X149797618Y-128002438D01*
X149797618Y-128002438D02*
X149845237Y-128050057D01*
X150845237Y-128954819D02*
X150511904Y-128478628D01*
X150273809Y-128954819D02*
X150273809Y-127954819D01*
X150273809Y-127954819D02*
X150654761Y-127954819D01*
X150654761Y-127954819D02*
X150749999Y-128002438D01*
X150749999Y-128002438D02*
X150797618Y-128050057D01*
X150797618Y-128050057D02*
X150845237Y-128145295D01*
X150845237Y-128145295D02*
X150845237Y-128288152D01*
X150845237Y-128288152D02*
X150797618Y-128383390D01*
X150797618Y-128383390D02*
X150749999Y-128431009D01*
X150749999Y-128431009D02*
X150654761Y-128478628D01*
X150654761Y-128478628D02*
X150273809Y-128478628D01*
X151273809Y-128431009D02*
X151607142Y-128431009D01*
X151749999Y-128954819D02*
X151273809Y-128954819D01*
X151273809Y-128954819D02*
X151273809Y-127954819D01*
X151273809Y-127954819D02*
X151749999Y-127954819D01*
X152130952Y-128669104D02*
X152607142Y-128669104D01*
X152035714Y-128954819D02*
X152369047Y-127954819D01*
X152369047Y-127954819D02*
X152702380Y-128954819D01*
X152988095Y-128907200D02*
X153130952Y-128954819D01*
X153130952Y-128954819D02*
X153369047Y-128954819D01*
X153369047Y-128954819D02*
X153464285Y-128907200D01*
X153464285Y-128907200D02*
X153511904Y-128859580D01*
X153511904Y-128859580D02*
X153559523Y-128764342D01*
X153559523Y-128764342D02*
X153559523Y-128669104D01*
X153559523Y-128669104D02*
X153511904Y-128573866D01*
X153511904Y-128573866D02*
X153464285Y-128526247D01*
X153464285Y-128526247D02*
X153369047Y-128478628D01*
X153369047Y-128478628D02*
X153178571Y-128431009D01*
X153178571Y-128431009D02*
X153083333Y-128383390D01*
X153083333Y-128383390D02*
X153035714Y-128335771D01*
X153035714Y-128335771D02*
X152988095Y-128240533D01*
X152988095Y-128240533D02*
X152988095Y-128145295D01*
X152988095Y-128145295D02*
X153035714Y-128050057D01*
X153035714Y-128050057D02*
X153083333Y-128002438D01*
X153083333Y-128002438D02*
X153178571Y-127954819D01*
X153178571Y-127954819D02*
X153416666Y-127954819D01*
X153416666Y-127954819D02*
X153559523Y-128002438D01*
X153988095Y-128431009D02*
X154321428Y-128431009D01*
X154464285Y-128954819D02*
X153988095Y-128954819D01*
X153988095Y-128954819D02*
X153988095Y-127954819D01*
X153988095Y-127954819D02*
X154464285Y-127954819D01*
X155416666Y-128954819D02*
X154845238Y-128954819D01*
X155130952Y-128954819D02*
X155130952Y-127954819D01*
X155130952Y-127954819D02*
X155035714Y-128097676D01*
X155035714Y-128097676D02*
X154940476Y-128192914D01*
X154940476Y-128192914D02*
X154845238Y-128240533D01*
X62833333Y-112204819D02*
X62500000Y-111728628D01*
X62261905Y-112204819D02*
X62261905Y-111204819D01*
X62261905Y-111204819D02*
X62642857Y-111204819D01*
X62642857Y-111204819D02*
X62738095Y-111252438D01*
X62738095Y-111252438D02*
X62785714Y-111300057D01*
X62785714Y-111300057D02*
X62833333Y-111395295D01*
X62833333Y-111395295D02*
X62833333Y-111538152D01*
X62833333Y-111538152D02*
X62785714Y-111633390D01*
X62785714Y-111633390D02*
X62738095Y-111681009D01*
X62738095Y-111681009D02*
X62642857Y-111728628D01*
X62642857Y-111728628D02*
X62261905Y-111728628D01*
X63166667Y-111204819D02*
X63785714Y-111204819D01*
X63785714Y-111204819D02*
X63452381Y-111585771D01*
X63452381Y-111585771D02*
X63595238Y-111585771D01*
X63595238Y-111585771D02*
X63690476Y-111633390D01*
X63690476Y-111633390D02*
X63738095Y-111681009D01*
X63738095Y-111681009D02*
X63785714Y-111776247D01*
X63785714Y-111776247D02*
X63785714Y-112014342D01*
X63785714Y-112014342D02*
X63738095Y-112109580D01*
X63738095Y-112109580D02*
X63690476Y-112157200D01*
X63690476Y-112157200D02*
X63595238Y-112204819D01*
X63595238Y-112204819D02*
X63309524Y-112204819D01*
X63309524Y-112204819D02*
X63214286Y-112157200D01*
X63214286Y-112157200D02*
X63166667Y-112109580D01*
X223819047Y-135731009D02*
X223961904Y-135778628D01*
X223961904Y-135778628D02*
X224009523Y-135826247D01*
X224009523Y-135826247D02*
X224057142Y-135921485D01*
X224057142Y-135921485D02*
X224057142Y-136064342D01*
X224057142Y-136064342D02*
X224009523Y-136159580D01*
X224009523Y-136159580D02*
X223961904Y-136207200D01*
X223961904Y-136207200D02*
X223866666Y-136254819D01*
X223866666Y-136254819D02*
X223485714Y-136254819D01*
X223485714Y-136254819D02*
X223485714Y-135254819D01*
X223485714Y-135254819D02*
X223819047Y-135254819D01*
X223819047Y-135254819D02*
X223914285Y-135302438D01*
X223914285Y-135302438D02*
X223961904Y-135350057D01*
X223961904Y-135350057D02*
X224009523Y-135445295D01*
X224009523Y-135445295D02*
X224009523Y-135540533D01*
X224009523Y-135540533D02*
X223961904Y-135635771D01*
X223961904Y-135635771D02*
X223914285Y-135683390D01*
X223914285Y-135683390D02*
X223819047Y-135731009D01*
X223819047Y-135731009D02*
X223485714Y-135731009D01*
X224390476Y-135254819D02*
X225057142Y-135254819D01*
X225057142Y-135254819D02*
X224390476Y-136254819D01*
X224390476Y-136254819D02*
X225057142Y-136254819D01*
X225961904Y-136254819D02*
X225390476Y-136254819D01*
X225676190Y-136254819D02*
X225676190Y-135254819D01*
X225676190Y-135254819D02*
X225580952Y-135397676D01*
X225580952Y-135397676D02*
X225485714Y-135492914D01*
X225485714Y-135492914D02*
X225390476Y-135540533D01*
X220509048Y-140533866D02*
X221270953Y-140533866D01*
X220890000Y-140914819D02*
X220890000Y-140152914D01*
X85815114Y-40973919D02*
X85815114Y-39973919D01*
X85815114Y-39973919D02*
X86053209Y-39973919D01*
X86053209Y-39973919D02*
X86196066Y-40021538D01*
X86196066Y-40021538D02*
X86291304Y-40116776D01*
X86291304Y-40116776D02*
X86338923Y-40212014D01*
X86338923Y-40212014D02*
X86386542Y-40402490D01*
X86386542Y-40402490D02*
X86386542Y-40545347D01*
X86386542Y-40545347D02*
X86338923Y-40735823D01*
X86338923Y-40735823D02*
X86291304Y-40831061D01*
X86291304Y-40831061D02*
X86196066Y-40926300D01*
X86196066Y-40926300D02*
X86053209Y-40973919D01*
X86053209Y-40973919D02*
X85815114Y-40973919D01*
X86767495Y-40926300D02*
X86910352Y-40973919D01*
X86910352Y-40973919D02*
X87148447Y-40973919D01*
X87148447Y-40973919D02*
X87243685Y-40926300D01*
X87243685Y-40926300D02*
X87291304Y-40878680D01*
X87291304Y-40878680D02*
X87338923Y-40783442D01*
X87338923Y-40783442D02*
X87338923Y-40688204D01*
X87338923Y-40688204D02*
X87291304Y-40592966D01*
X87291304Y-40592966D02*
X87243685Y-40545347D01*
X87243685Y-40545347D02*
X87148447Y-40497728D01*
X87148447Y-40497728D02*
X86957971Y-40450109D01*
X86957971Y-40450109D02*
X86862733Y-40402490D01*
X86862733Y-40402490D02*
X86815114Y-40354871D01*
X86815114Y-40354871D02*
X86767495Y-40259633D01*
X86767495Y-40259633D02*
X86767495Y-40164395D01*
X86767495Y-40164395D02*
X86815114Y-40069157D01*
X86815114Y-40069157D02*
X86862733Y-40021538D01*
X86862733Y-40021538D02*
X86957971Y-39973919D01*
X86957971Y-39973919D02*
X87196066Y-39973919D01*
X87196066Y-39973919D02*
X87338923Y-40021538D01*
X88291304Y-40973919D02*
X87719876Y-40973919D01*
X88005590Y-40973919D02*
X88005590Y-39973919D01*
X88005590Y-39973919D02*
X87910352Y-40116776D01*
X87910352Y-40116776D02*
X87815114Y-40212014D01*
X87815114Y-40212014D02*
X87719876Y-40259633D01*
X63781905Y-136394819D02*
X63781905Y-135394819D01*
X63781905Y-135394819D02*
X64020000Y-135394819D01*
X64020000Y-135394819D02*
X64162857Y-135442438D01*
X64162857Y-135442438D02*
X64258095Y-135537676D01*
X64258095Y-135537676D02*
X64305714Y-135632914D01*
X64305714Y-135632914D02*
X64353333Y-135823390D01*
X64353333Y-135823390D02*
X64353333Y-135966247D01*
X64353333Y-135966247D02*
X64305714Y-136156723D01*
X64305714Y-136156723D02*
X64258095Y-136251961D01*
X64258095Y-136251961D02*
X64162857Y-136347200D01*
X64162857Y-136347200D02*
X64020000Y-136394819D01*
X64020000Y-136394819D02*
X63781905Y-136394819D01*
X64734286Y-135490057D02*
X64781905Y-135442438D01*
X64781905Y-135442438D02*
X64877143Y-135394819D01*
X64877143Y-135394819D02*
X65115238Y-135394819D01*
X65115238Y-135394819D02*
X65210476Y-135442438D01*
X65210476Y-135442438D02*
X65258095Y-135490057D01*
X65258095Y-135490057D02*
X65305714Y-135585295D01*
X65305714Y-135585295D02*
X65305714Y-135680533D01*
X65305714Y-135680533D02*
X65258095Y-135823390D01*
X65258095Y-135823390D02*
X64686667Y-136394819D01*
X64686667Y-136394819D02*
X65305714Y-136394819D01*
X77893333Y-112584819D02*
X77560000Y-112108628D01*
X77321905Y-112584819D02*
X77321905Y-111584819D01*
X77321905Y-111584819D02*
X77702857Y-111584819D01*
X77702857Y-111584819D02*
X77798095Y-111632438D01*
X77798095Y-111632438D02*
X77845714Y-111680057D01*
X77845714Y-111680057D02*
X77893333Y-111775295D01*
X77893333Y-111775295D02*
X77893333Y-111918152D01*
X77893333Y-111918152D02*
X77845714Y-112013390D01*
X77845714Y-112013390D02*
X77798095Y-112061009D01*
X77798095Y-112061009D02*
X77702857Y-112108628D01*
X77702857Y-112108628D02*
X77321905Y-112108628D01*
X78845714Y-112584819D02*
X78274286Y-112584819D01*
X78560000Y-112584819D02*
X78560000Y-111584819D01*
X78560000Y-111584819D02*
X78464762Y-111727676D01*
X78464762Y-111727676D02*
X78369524Y-111822914D01*
X78369524Y-111822914D02*
X78274286Y-111870533D01*
X171690476Y-126954819D02*
X171690476Y-125954819D01*
X171690476Y-125954819D02*
X172023809Y-126669104D01*
X172023809Y-126669104D02*
X172357142Y-125954819D01*
X172357142Y-125954819D02*
X172357142Y-126954819D01*
X172833333Y-126431009D02*
X173166666Y-126431009D01*
X173309523Y-126954819D02*
X172833333Y-126954819D01*
X172833333Y-126954819D02*
X172833333Y-125954819D01*
X172833333Y-125954819D02*
X173309523Y-125954819D01*
X173738095Y-126954819D02*
X173738095Y-125954819D01*
X173738095Y-125954819D02*
X174309523Y-126954819D01*
X174309523Y-126954819D02*
X174309523Y-125954819D01*
X174785714Y-125954819D02*
X174785714Y-126764342D01*
X174785714Y-126764342D02*
X174833333Y-126859580D01*
X174833333Y-126859580D02*
X174880952Y-126907200D01*
X174880952Y-126907200D02*
X174976190Y-126954819D01*
X174976190Y-126954819D02*
X175166666Y-126954819D01*
X175166666Y-126954819D02*
X175261904Y-126907200D01*
X175261904Y-126907200D02*
X175309523Y-126859580D01*
X175309523Y-126859580D02*
X175357142Y-126764342D01*
X175357142Y-126764342D02*
X175357142Y-125954819D01*
X176357142Y-126954819D02*
X175785714Y-126954819D01*
X176071428Y-126954819D02*
X176071428Y-125954819D01*
X176071428Y-125954819D02*
X175976190Y-126097676D01*
X175976190Y-126097676D02*
X175880952Y-126192914D01*
X175880952Y-126192914D02*
X175785714Y-126240533D01*
X147738095Y-112454819D02*
X147738095Y-113264342D01*
X147738095Y-113264342D02*
X147785714Y-113359580D01*
X147785714Y-113359580D02*
X147833333Y-113407200D01*
X147833333Y-113407200D02*
X147928571Y-113454819D01*
X147928571Y-113454819D02*
X148119047Y-113454819D01*
X148119047Y-113454819D02*
X148214285Y-113407200D01*
X148214285Y-113407200D02*
X148261904Y-113359580D01*
X148261904Y-113359580D02*
X148309523Y-113264342D01*
X148309523Y-113264342D02*
X148309523Y-112454819D01*
X148785714Y-113454819D02*
X148785714Y-112454819D01*
X148785714Y-112454819D02*
X149166666Y-112454819D01*
X149166666Y-112454819D02*
X149261904Y-112502438D01*
X149261904Y-112502438D02*
X149309523Y-112550057D01*
X149309523Y-112550057D02*
X149357142Y-112645295D01*
X149357142Y-112645295D02*
X149357142Y-112788152D01*
X149357142Y-112788152D02*
X149309523Y-112883390D01*
X149309523Y-112883390D02*
X149261904Y-112931009D01*
X149261904Y-112931009D02*
X149166666Y-112978628D01*
X149166666Y-112978628D02*
X148785714Y-112978628D01*
X150309523Y-113454819D02*
X149738095Y-113454819D01*
X150023809Y-113454819D02*
X150023809Y-112454819D01*
X150023809Y-112454819D02*
X149928571Y-112597676D01*
X149928571Y-112597676D02*
X149833333Y-112692914D01*
X149833333Y-112692914D02*
X149738095Y-112740533D01*
X92143333Y-112584819D02*
X91810000Y-112108628D01*
X91571905Y-112584819D02*
X91571905Y-111584819D01*
X91571905Y-111584819D02*
X91952857Y-111584819D01*
X91952857Y-111584819D02*
X92048095Y-111632438D01*
X92048095Y-111632438D02*
X92095714Y-111680057D01*
X92095714Y-111680057D02*
X92143333Y-111775295D01*
X92143333Y-111775295D02*
X92143333Y-111918152D01*
X92143333Y-111918152D02*
X92095714Y-112013390D01*
X92095714Y-112013390D02*
X92048095Y-112061009D01*
X92048095Y-112061009D02*
X91952857Y-112108628D01*
X91952857Y-112108628D02*
X91571905Y-112108628D01*
X92524286Y-111680057D02*
X92571905Y-111632438D01*
X92571905Y-111632438D02*
X92667143Y-111584819D01*
X92667143Y-111584819D02*
X92905238Y-111584819D01*
X92905238Y-111584819D02*
X93000476Y-111632438D01*
X93000476Y-111632438D02*
X93048095Y-111680057D01*
X93048095Y-111680057D02*
X93095714Y-111775295D01*
X93095714Y-111775295D02*
X93095714Y-111870533D01*
X93095714Y-111870533D02*
X93048095Y-112013390D01*
X93048095Y-112013390D02*
X92476667Y-112584819D01*
X92476667Y-112584819D02*
X93095714Y-112584819D01*
X108788095Y-93329819D02*
X108788095Y-94139342D01*
X108788095Y-94139342D02*
X108835714Y-94234580D01*
X108835714Y-94234580D02*
X108883333Y-94282200D01*
X108883333Y-94282200D02*
X108978571Y-94329819D01*
X108978571Y-94329819D02*
X109169047Y-94329819D01*
X109169047Y-94329819D02*
X109264285Y-94282200D01*
X109264285Y-94282200D02*
X109311904Y-94234580D01*
X109311904Y-94234580D02*
X109359523Y-94139342D01*
X109359523Y-94139342D02*
X109359523Y-93329819D01*
X109788095Y-93425057D02*
X109835714Y-93377438D01*
X109835714Y-93377438D02*
X109930952Y-93329819D01*
X109930952Y-93329819D02*
X110169047Y-93329819D01*
X110169047Y-93329819D02*
X110264285Y-93377438D01*
X110264285Y-93377438D02*
X110311904Y-93425057D01*
X110311904Y-93425057D02*
X110359523Y-93520295D01*
X110359523Y-93520295D02*
X110359523Y-93615533D01*
X110359523Y-93615533D02*
X110311904Y-93758390D01*
X110311904Y-93758390D02*
X109740476Y-94329819D01*
X109740476Y-94329819D02*
X110359523Y-94329819D01*
X186583809Y-94958628D02*
X186583809Y-95434819D01*
X186250476Y-94434819D02*
X186583809Y-94958628D01*
X186583809Y-94958628D02*
X186917142Y-94434819D01*
X187774285Y-95434819D02*
X187202857Y-95434819D01*
X187488571Y-95434819D02*
X187488571Y-94434819D01*
X187488571Y-94434819D02*
X187393333Y-94577676D01*
X187393333Y-94577676D02*
X187298095Y-94672914D01*
X187298095Y-94672914D02*
X187202857Y-94720533D01*
%TO.C,U1*%
D11*
X120802500Y-116190000D02*
X122322500Y-116190000D01*
X120802500Y-116240000D02*
X120802500Y-116190000D01*
X120802500Y-118140000D02*
X120802500Y-117360000D01*
X120802500Y-119310000D02*
X120802500Y-119260000D01*
X122322500Y-116190000D02*
X122322500Y-117190000D01*
X122322500Y-118310000D02*
X122322500Y-119310000D01*
X122322500Y-119310000D02*
X120802500Y-119310000D01*
X120262500Y-117370000D02*
X120502500Y-117700000D01*
X120022500Y-117700000D01*
X120262500Y-117370000D01*
G36*
X120502500Y-117700000D02*
G01*
X120022500Y-117700000D01*
X120262500Y-117370000D01*
X120502500Y-117700000D01*
G37*
%TO.C,DOWN1*%
X143350000Y-144850000D02*
X155650000Y-144850000D01*
X143350000Y-146970000D02*
X143350000Y-144850000D01*
X143350000Y-151970000D02*
X143350000Y-150030000D01*
X143350000Y-157150000D02*
X143350000Y-155030000D01*
X155650000Y-144850000D02*
X155650000Y-146970000D01*
X155650000Y-150030000D02*
X155650000Y-151970000D01*
X155650000Y-155030000D02*
X155650000Y-157150000D01*
X155650000Y-157150000D02*
X143350000Y-157150000D01*
X154179050Y-151040000D02*
G75*
G02*
X145020950Y-151040000I-4579050J0D01*
G01*
X145020950Y-151040000D02*
G75*
G02*
X154179050Y-151040000I4579050J0D01*
G01*
%TO.C,D1*%
X86920000Y-139359000D02*
X86920000Y-143641000D01*
X86920000Y-139358855D02*
G75*
G02*
X95570000Y-141500000I4060000J-2141145D01*
G01*
X95570000Y-141500000D02*
G75*
G02*
X86920000Y-143641145I-4590000J0D01*
G01*
X94980000Y-141500000D02*
G75*
G02*
X86980000Y-141500000I-4000000J0D01*
G01*
X86980000Y-141500000D02*
G75*
G02*
X94980000Y-141500000I4000000J0D01*
G01*
%TO.C,C1*%
X197130000Y-128880000D02*
X204370000Y-128880000D01*
X197130000Y-131620000D02*
X197130000Y-128880000D01*
X204370000Y-128880000D02*
X204370000Y-131620000D01*
X204370000Y-131620000D02*
X197130000Y-131620000D01*
%TO.C,R4*%
X224085000Y-94980000D02*
X233835000Y-94980000D01*
X224085000Y-100030000D02*
X224085000Y-94980000D01*
X233835000Y-94980000D02*
X233835000Y-100030000D01*
X233835000Y-100030000D02*
X224085000Y-100030000D01*
%TO.C,SELECT1*%
X119600000Y-124600000D02*
X131900000Y-124600000D01*
X119600000Y-126720000D02*
X119600000Y-124600000D01*
X119600000Y-131720000D02*
X119600000Y-129780000D01*
X119600000Y-136900000D02*
X119600000Y-134780000D01*
X131900000Y-124600000D02*
X131900000Y-126720000D01*
X131900000Y-129780000D02*
X131900000Y-131720000D01*
X131900000Y-134780000D02*
X131900000Y-136900000D01*
X131900000Y-136900000D02*
X119600000Y-136900000D01*
X130429050Y-130790000D02*
G75*
G02*
X121270950Y-130790000I-4579050J0D01*
G01*
X121270950Y-130790000D02*
G75*
G02*
X130429050Y-130790000I4579050J0D01*
G01*
%TO.C,C2*%
X197630000Y-139130000D02*
X202870000Y-139130000D01*
X197630000Y-139467000D02*
X197630000Y-139130000D01*
X197630000Y-141870000D02*
X197630000Y-141533000D01*
X202870000Y-139130000D02*
X202870000Y-139467000D01*
X202870000Y-141533000D02*
X202870000Y-141870000D01*
X202870000Y-141870000D02*
X197630000Y-141870000D01*
%TO.C,SAVE/INCREASE1*%
X145750000Y-132000000D02*
X145750000Y-133500000D01*
X147000000Y-136000000D02*
X151500000Y-136000000D01*
X151500000Y-129500000D02*
X147000000Y-129500000D01*
X152750000Y-133500000D02*
X152750000Y-132000000D01*
%TO.C,R3*%
X59670000Y-113130000D02*
X66210000Y-113130000D01*
X59670000Y-113460000D02*
X59670000Y-113130000D01*
X59670000Y-115540000D02*
X59670000Y-115870000D01*
X59670000Y-115870000D02*
X66210000Y-115870000D01*
X66210000Y-113130000D02*
X66210000Y-113460000D01*
X66210000Y-115870000D02*
X66210000Y-115540000D01*
%TO.C,BZ1*%
X230800000Y-143000000D02*
G75*
G02*
X218600000Y-143000000I-6100000J0D01*
G01*
X218600000Y-143000000D02*
G75*
G02*
X230800000Y-143000000I6100000J0D01*
G01*
%TO.C,DS1*%
X85109400Y-41359100D02*
X85109400Y-85639100D01*
X85109400Y-41359100D02*
X207389400Y-41359100D01*
X86749400Y-58499100D02*
X93849400Y-58499100D01*
X86749400Y-68499100D02*
X86749400Y-58499100D01*
X87749400Y-56299100D02*
X87749400Y-58499100D01*
X87749400Y-70699100D02*
X87749400Y-68499100D01*
X89749400Y-56299100D02*
X87749400Y-56299100D01*
X89749400Y-58499100D02*
X89749400Y-56299100D01*
X89749400Y-68499100D02*
X89749400Y-70699100D01*
X89749400Y-70699100D02*
X87749400Y-70699100D01*
X93849400Y-47799100D02*
X198249400Y-47799100D01*
X93849400Y-68499100D02*
X86749400Y-68499100D01*
X93849400Y-83199100D02*
X93849400Y-47799100D01*
X96249400Y-76999100D02*
X96249400Y-53999100D01*
X97249400Y-52999100D02*
X194749400Y-52999100D01*
X156149400Y-40999100D02*
X160149400Y-40999100D01*
X194749400Y-77999100D02*
X97249400Y-77999100D01*
X195749400Y-53999100D02*
X195749400Y-76999100D01*
X198249400Y-47799100D02*
X198249400Y-83199100D01*
X198249400Y-83199100D02*
X93849400Y-83199100D01*
X207389400Y-41359100D02*
X207389400Y-85639100D01*
X207389400Y-85639100D02*
X85109400Y-85639100D01*
X96249400Y-53999100D02*
G75*
G02*
X97249400Y-52999100I999999J1D01*
G01*
X97249400Y-77999100D02*
G75*
G02*
X96249400Y-76999100I-1J999999D01*
G01*
X194749400Y-52999100D02*
G75*
G02*
X195749400Y-53999100I0J-1000000D01*
G01*
X195749400Y-76999100D02*
G75*
G02*
X194749400Y-77999100I-1000000J0D01*
G01*
%TO.C,D2*%
X60460000Y-139359000D02*
X60460000Y-143641000D01*
X60460000Y-139358855D02*
G75*
G02*
X69110000Y-141500000I4060000J-2141145D01*
G01*
X69110000Y-141500000D02*
G75*
G02*
X60460000Y-143641145I-4590000J0D01*
G01*
X68520000Y-141500000D02*
G75*
G02*
X60520000Y-141500000I-4000000J0D01*
G01*
X60520000Y-141500000D02*
G75*
G02*
X68520000Y-141500000I4000000J0D01*
G01*
%TO.C,R1*%
X74790000Y-113130000D02*
X81330000Y-113130000D01*
X74790000Y-113460000D02*
X74790000Y-113130000D01*
X74790000Y-115540000D02*
X74790000Y-115870000D01*
X74790000Y-115870000D02*
X81330000Y-115870000D01*
X81330000Y-113130000D02*
X81330000Y-113460000D01*
X81330000Y-115870000D02*
X81330000Y-115540000D01*
%TO.C,MENU1*%
X170500000Y-130000000D02*
X170500000Y-131500000D01*
X171750000Y-134000000D02*
X176250000Y-134000000D01*
X176250000Y-127500000D02*
X171750000Y-127500000D01*
X177500000Y-131500000D02*
X177500000Y-130000000D01*
%TO.C,UP1*%
X145500000Y-116500000D02*
X145500000Y-118000000D01*
X146750000Y-120500000D02*
X151250000Y-120500000D01*
X151250000Y-114000000D02*
X146750000Y-114000000D01*
X152500000Y-118000000D02*
X152500000Y-116500000D01*
%TO.C,R2*%
X89040000Y-113130000D02*
X95580000Y-113130000D01*
X89040000Y-113460000D02*
X89040000Y-113130000D01*
X89040000Y-115540000D02*
X89040000Y-115870000D01*
X89040000Y-115870000D02*
X95580000Y-115870000D01*
X95580000Y-113130000D02*
X95580000Y-113460000D01*
X95580000Y-115870000D02*
X95580000Y-115540000D01*
%TO.C,U2*%
X105240000Y-92727500D02*
X105815000Y-92727500D01*
X105240000Y-93302500D02*
X105240000Y-92727500D01*
X105240000Y-102947500D02*
X105240000Y-102372500D01*
X105815000Y-102947500D02*
X105240000Y-102947500D01*
X114885000Y-92727500D02*
X115460000Y-92727500D01*
X115460000Y-92727500D02*
X115460000Y-93302500D01*
X115460000Y-102372500D02*
X115460000Y-102947500D01*
X115460000Y-102947500D02*
X114885000Y-102947500D01*
X104600000Y-93297500D02*
X104260000Y-92827500D01*
X104940000Y-92827500D01*
X104600000Y-93297500D01*
G36*
X104600000Y-93297500D02*
G01*
X104260000Y-92827500D01*
X104940000Y-92827500D01*
X104600000Y-93297500D01*
G37*
%TO.C,Y1*%
X183935000Y-96065000D02*
X190185000Y-96065000D01*
X190185000Y-100935000D02*
X183935000Y-100935000D01*
X183935000Y-100935000D02*
G75*
G02*
X183935000Y-96065000I0J2435000D01*
G01*
X190185000Y-96065000D02*
G75*
G02*
X190185000Y-100935000I0J-2435000D01*
G01*
%TD*%
M02*
