%TF.GenerationSoftware,KiCad,Pcbnew,10.0.3*%
%TF.CreationDate,2026-06-28T23:11:08+03:00*%
%TF.ProjectId,LCD_Project,4c43445f-5072-46f6-9a65-63742e6b6963,rev?*%
%TF.SameCoordinates,Original*%
%TF.FileFunction,Copper,L1,Top*%
%TF.FilePolarity,Positive*%
%FSLAX46Y46*%
G04 Gerber Fmt 4.6, Leading zero omitted, Abs format (unit mm)*
G04 Created by KiCad (PCBNEW 10.0.3) date 2026-06-28 23:11:08*
%MOMM*%
%LPD*%
G01*
G04 APERTURE LIST*
G04 Aperture macros list*
%AMRoundRect*
0 Rectangle with rounded corners*
0 $1 Rounding radius*
0 $2 $3 $4 $5 $6 $7 $8 $9 X,Y pos of 4 corners*
0 Add a 4 corners polygon primitive as box body*
4,1,4,$2,$3,$4,$5,$6,$7,$8,$9,$2,$3,0*
0 Add four circle primitives for the rounded corners*
1,1,$1+$1,$2,$3*
1,1,$1+$1,$4,$5*
1,1,$1+$1,$6,$7*
1,1,$1+$1,$8,$9*
0 Add four rect primitives between the rounded corners*
20,1,$1+$1,$2,$3,$4,$5,0*
20,1,$1+$1,$4,$5,$6,$7,0*
20,1,$1+$1,$6,$7,$8,$9,0*
20,1,$1+$1,$8,$9,$2,$3,0*%
G04 Aperture macros list end*
%TA.AperFunction,SMDPad,CuDef*%
%ADD10RoundRect,0.150000X-0.587500X-0.150000X0.587500X-0.150000X0.587500X0.150000X-0.587500X0.150000X0*%
%TD*%
%TA.AperFunction,ComponentPad*%
%ADD11O,3.000000X2.500000*%
%TD*%
%TA.AperFunction,ComponentPad*%
%ADD12R,1.800000X1.800000*%
%TD*%
%TA.AperFunction,ComponentPad*%
%ADD13C,1.800000*%
%TD*%
%TA.AperFunction,ComponentPad*%
%ADD14C,1.600000*%
%TD*%
%TA.AperFunction,ComponentPad*%
%ADD15C,1.440000*%
%TD*%
%TA.AperFunction,ComponentPad*%
%ADD16C,2.000000*%
%TD*%
%TA.AperFunction,ComponentPad*%
%ADD17R,2.000000X2.000000*%
%TD*%
%TA.AperFunction,ComponentPad*%
%ADD18C,4.000000*%
%TD*%
%TA.AperFunction,ComponentPad*%
%ADD19R,1.800000X2.600000*%
%TD*%
%TA.AperFunction,ComponentPad*%
%ADD20O,1.800000X2.600000*%
%TD*%
%TA.AperFunction,SMDPad,CuDef*%
%ADD21RoundRect,0.137500X-0.600000X-0.137500X0.600000X-0.137500X0.600000X0.137500X-0.600000X0.137500X0*%
%TD*%
%TA.AperFunction,SMDPad,CuDef*%
%ADD22RoundRect,0.137500X-0.137500X-0.600000X0.137500X-0.600000X0.137500X0.600000X-0.137500X0.600000X0*%
%TD*%
%TA.AperFunction,ComponentPad*%
%ADD23C,1.500000*%
%TD*%
%TA.AperFunction,ViaPad*%
%ADD24C,0.600000*%
%TD*%
%TA.AperFunction,Conductor*%
%ADD25C,0.200000*%
%TD*%
G04 APERTURE END LIST*
D10*
%TO.P,U1,1,GND_1*%
%TO.N,GND*%
X120625000Y-116800000D03*
%TO.P,U1,2,~{RESET}_2*%
%TO.N,Net-(U1-~{RESET})*%
X120625000Y-118700000D03*
%TO.P,U1,3,VCC_3*%
%TO.N,+5V*%
X122500000Y-117750000D03*
%TD*%
D11*
%TO.P,DOWN1,1,1_1*%
%TO.N,Net-(U2-PA2)*%
X143250000Y-148500000D03*
X155750000Y-148500000D03*
%TO.P,DOWN1,2,2_2*%
%TO.N,GND*%
X143250000Y-153500000D03*
X155750000Y-153500000D03*
%TD*%
D12*
%TO.P,D1,1,K_1*%
%TO.N,GND*%
X89710000Y-141500000D03*
D13*
%TO.P,D1,2,A_2*%
%TO.N,Net-(D1-A)*%
X92250000Y-141500000D03*
%TD*%
D14*
%TO.P,C1,1*%
%TO.N,Net-(U2-XTAL1)*%
X198250000Y-130250000D03*
%TO.P,C1,2*%
%TO.N,GND*%
X203250000Y-130250000D03*
%TD*%
D15*
%TO.P,R4,1,1_1*%
%TO.N,Net-(DS1-Vo)*%
X231500000Y-97500000D03*
%TO.P,R4,2,2_2*%
%TO.N,unconnected-(R4-Pad2)*%
X228960000Y-97500000D03*
%TO.P,R4,3,3_3*%
%TO.N,+5V*%
X226420000Y-97500000D03*
%TD*%
D11*
%TO.P,SELECT1,1,1_1*%
%TO.N,Net-(U2-PA3)*%
X119500000Y-128250000D03*
X132000000Y-128250000D03*
%TO.P,SELECT1,2,2_2*%
%TO.N,GND*%
X119500000Y-133250000D03*
X132000000Y-133250000D03*
%TD*%
D14*
%TO.P,C2,1*%
%TO.N,Net-(U2-XTAL2)*%
X197750000Y-140500000D03*
%TO.P,C2,2*%
%TO.N,GND*%
X202750000Y-140500000D03*
%TD*%
D16*
%TO.P,SAVE/INCREASE1,1,1_1*%
%TO.N,Net-(U2-PA4)*%
X146000000Y-130500000D03*
X152500000Y-130500000D03*
%TO.P,SAVE/INCREASE1,2,2_2*%
%TO.N,GND*%
X146000000Y-135000000D03*
X152500000Y-135000000D03*
%TD*%
D14*
%TO.P,R3,1*%
%TO.N,Net-(D2-A)*%
X59130000Y-114500000D03*
%TO.P,R3,2*%
%TO.N,Net-(U2-PB1)*%
X66750000Y-114500000D03*
%TD*%
D17*
%TO.P,BZ1,1,+_1*%
%TO.N,Net-(BZ1-+)*%
X220900000Y-143000000D03*
D16*
%TO.P,BZ1,2,-_2*%
%TO.N,GND*%
X228500000Y-143000000D03*
%TD*%
D18*
%TO.P,DS1,*%
%TO.N,*%
X88748980Y-44999860D03*
X88748980Y-82000040D03*
X203750020Y-44999860D03*
X203750020Y-82000040D03*
D19*
%TO.P,DS1,1,LEDK_1*%
%TO.N,unconnected-(DS1-LEDK-Pad1)*%
X158149400Y-43999100D03*
D20*
%TO.P,DS1,2,LEDA_2*%
%TO.N,unconnected-(DS1-LEDA-Pad2)*%
X160689400Y-43999100D03*
%TO.P,DS1,3,VSS_3*%
%TO.N,unconnected-(DS1-VSS-Pad3)*%
X163229400Y-43999100D03*
%TO.P,DS1,4,VDD_4*%
%TO.N,unconnected-(DS1-VDD-Pad4)*%
X165769400Y-43999100D03*
%TO.P,DS1,5,Vo_5*%
%TO.N,Net-(DS1-Vo)*%
X168309400Y-43999100D03*
%TO.P,DS1,6,RS_6*%
%TO.N,Net-(DS1-RS)*%
X170849400Y-43999100D03*
%TO.P,DS1,7,R/~{W}_7*%
%TO.N,unconnected-(DS1-R{slash}~{W}-Pad7)*%
X173389400Y-43999100D03*
%TO.P,DS1,8,E_8*%
%TO.N,Net-(DS1-E)*%
X175929400Y-43999100D03*
%TO.P,DS1,9,DB0_9*%
%TO.N,unconnected-(DS1-DB0-Pad9)*%
X178469400Y-43999100D03*
%TO.P,DS1,10,DB1_10*%
%TO.N,unconnected-(DS1-DB1-Pad10)*%
X181009400Y-43999100D03*
%TO.P,DS1,11,DB2_11*%
%TO.N,unconnected-(DS1-DB2-Pad11)*%
X183549400Y-43999100D03*
%TO.P,DS1,12,DB3_12*%
%TO.N,unconnected-(DS1-DB3-Pad12)*%
X186089400Y-43999100D03*
%TO.P,DS1,13,DB4_13*%
%TO.N,Net-(DS1-DB4)*%
X188629400Y-43999100D03*
%TO.P,DS1,14,DB5_14*%
%TO.N,Net-(DS1-DB5)*%
X191169400Y-43999100D03*
%TO.P,DS1,15,DB6_15*%
%TO.N,Net-(DS1-DB6)*%
X193709400Y-43999100D03*
%TO.P,DS1,16,DB7_16*%
%TO.N,Net-(DS1-DB7)*%
X196249400Y-43999100D03*
%TD*%
D12*
%TO.P,D2,1,K_1*%
%TO.N,GND*%
X63250000Y-141500000D03*
D13*
%TO.P,D2,2,A_2*%
%TO.N,Net-(D2-A)*%
X65790000Y-141500000D03*
%TD*%
D14*
%TO.P,R1,1*%
%TO.N,+5V*%
X74250000Y-114500000D03*
%TO.P,R1,2*%
%TO.N,Net-(U1-~{RESET})*%
X81870000Y-114500000D03*
%TD*%
D16*
%TO.P,MENU1,1,1_1*%
%TO.N,Net-(U2-PA0)*%
X170750000Y-128500000D03*
X177250000Y-128500000D03*
%TO.P,MENU1,2,2_2*%
%TO.N,GND*%
X170750000Y-133000000D03*
X177250000Y-133000000D03*
%TD*%
%TO.P,UP1,1,1_1*%
%TO.N,Net-(U2-PA1)*%
X145750000Y-115000000D03*
X152250000Y-115000000D03*
%TO.P,UP1,2,2_2*%
%TO.N,GND*%
X145750000Y-119500000D03*
X152250000Y-119500000D03*
%TD*%
D14*
%TO.P,R2,1*%
%TO.N,Net-(D1-A)*%
X88500000Y-114500000D03*
%TO.P,R2,2*%
%TO.N,Net-(U2-PB0)*%
X96120000Y-114500000D03*
%TD*%
D21*
%TO.P,U2,1,PB5_1*%
%TO.N,unconnected-(U2-PB5-Pad1)*%
X104687500Y-93837500D03*
%TO.P,U2,2,PB6_2*%
%TO.N,unconnected-(U2-PB6-Pad2)*%
X104687500Y-94637500D03*
%TO.P,U2,3,PB7_3*%
%TO.N,unconnected-(U2-PB7-Pad3)*%
X104687500Y-95437500D03*
%TO.P,U2,4,~{RESET}_4*%
%TO.N,Net-(U1-~{RESET})*%
X104687500Y-96237500D03*
%TO.P,U2,5,VCC_5*%
%TO.N,unconnected-(U2-VCC-Pad17)_1*%
X104687500Y-97037500D03*
%TO.P,U2,6,GND_6*%
%TO.N,GND*%
X104687500Y-97837500D03*
%TO.P,U2,7,XTAL2_7*%
%TO.N,Net-(U2-XTAL2)*%
X104687500Y-98637500D03*
%TO.P,U2,8,XTAL1_8*%
%TO.N,Net-(U2-XTAL1)*%
X104687500Y-99437500D03*
%TO.P,U2,9,PD0_9*%
%TO.N,unconnected-(U2-PD0-Pad9)*%
X104687500Y-100237500D03*
%TO.P,U2,10,PD1_10*%
%TO.N,unconnected-(U2-PD1-Pad10)*%
X104687500Y-101037500D03*
%TO.P,U2,11,PD2_11*%
%TO.N,unconnected-(U2-PD2-Pad11)*%
X104687500Y-101837500D03*
D22*
%TO.P,U2,12,PD3_12*%
%TO.N,unconnected-(U2-PD3-Pad12)*%
X106350000Y-103500000D03*
%TO.P,U2,13,PD4_13*%
%TO.N,unconnected-(U2-PD4-Pad13)*%
X107150000Y-103500000D03*
%TO.P,U2,14,PD5_14*%
%TO.N,unconnected-(U2-PD5-Pad14)*%
X107950000Y-103500000D03*
%TO.P,U2,15,PD6_15*%
%TO.N,unconnected-(U2-PD6-Pad15)*%
X108750000Y-103500000D03*
%TO.P,U2,16,PD7_16*%
%TO.N,unconnected-(U2-PD7-Pad16)*%
X109550000Y-103500000D03*
%TO.P,U2,17,VCC_17*%
%TO.N,unconnected-(U2-VCC-Pad17)_2*%
X110350000Y-103500000D03*
%TO.P,U2,18,GND_18*%
%TO.N,GND*%
X111150000Y-103500000D03*
%TO.P,U2,19,PC0_19*%
%TO.N,Net-(DS1-RS)*%
X111950000Y-103500000D03*
%TO.P,U2,20,PC1_20*%
%TO.N,Net-(DS1-E)*%
X112750000Y-103500000D03*
%TO.P,U2,21,PC2_21*%
%TO.N,Net-(DS1-DB4)*%
X113550000Y-103500000D03*
%TO.P,U2,22,PC3_22*%
%TO.N,Net-(DS1-DB5)*%
X114350000Y-103500000D03*
D21*
%TO.P,U2,23,PC4_23*%
%TO.N,Net-(DS1-DB6)*%
X116012500Y-101837500D03*
%TO.P,U2,24,PC5_24*%
%TO.N,Net-(DS1-DB7)*%
X116012500Y-101037500D03*
%TO.P,U2,25,PC6_25*%
%TO.N,unconnected-(U2-PC6-Pad25)*%
X116012500Y-100237500D03*
%TO.P,U2,26,PC7_26*%
%TO.N,unconnected-(U2-PC7-Pad26)*%
X116012500Y-99437500D03*
%TO.P,U2,27,AVCC_27*%
%TO.N,unconnected-(U2-AVCC-Pad27)*%
X116012500Y-98637500D03*
%TO.P,U2,28,GND_28*%
%TO.N,GND*%
X116012500Y-97837500D03*
%TO.P,U2,29,AREF_29*%
%TO.N,unconnected-(U2-AREF-Pad29)*%
X116012500Y-97037500D03*
%TO.P,U2,30,PA7_30*%
%TO.N,unconnected-(U2-PA7-Pad30)*%
X116012500Y-96237500D03*
%TO.P,U2,31,PA6_31*%
%TO.N,unconnected-(U2-PA6-Pad31)*%
X116012500Y-95437500D03*
%TO.P,U2,32,PA5_32*%
%TO.N,unconnected-(U2-PA5-Pad32)*%
X116012500Y-94637500D03*
%TO.P,U2,33,PA4_33*%
%TO.N,Net-(U2-PA4)*%
X116012500Y-93837500D03*
D22*
%TO.P,U2,34,PA3_34*%
%TO.N,Net-(U2-PA3)*%
X114350000Y-92175000D03*
%TO.P,U2,35,PA2_35*%
%TO.N,Net-(U2-PA2)*%
X113550000Y-92175000D03*
%TO.P,U2,36,PA1_36*%
%TO.N,Net-(U2-PA1)*%
X112750000Y-92175000D03*
%TO.P,U2,37,PA0_37*%
%TO.N,Net-(U2-PA0)*%
X111950000Y-92175000D03*
%TO.P,U2,38,VCC_38*%
%TO.N,unconnected-(U2-VCC-Pad17)*%
X111150000Y-92175000D03*
%TO.P,U2,39,GND_39*%
%TO.N,GND*%
X110350000Y-92175000D03*
%TO.P,U2,40,PB0_40*%
%TO.N,Net-(U2-PB0)*%
X109550000Y-92175000D03*
%TO.P,U2,41,PB1_41*%
%TO.N,Net-(U2-PB1)*%
X108750000Y-92175000D03*
%TO.P,U2,42,PB2_42*%
%TO.N,Net-(BZ1-+)*%
X107950000Y-92175000D03*
%TO.P,U2,43,PB3_43*%
%TO.N,unconnected-(U2-PB3-Pad43)*%
X107150000Y-92175000D03*
%TO.P,U2,44,PB4_44*%
%TO.N,unconnected-(U2-PB4-Pad44)*%
X106350000Y-92175000D03*
%TD*%
D23*
%TO.P,Y1,1,1_1*%
%TO.N,Net-(U2-XTAL1)*%
X184620000Y-98500000D03*
%TO.P,Y1,2,2_2*%
%TO.N,Net-(U2-XTAL2)*%
X189500000Y-98500000D03*
%TD*%
D24*
%TO.N,GND*%
X118253200Y-116323800D03*
%TO.N,Net-(U2-PA2)*%
X113550100Y-93894900D03*
%TO.N,Net-(U2-PA3)*%
X114242500Y-93415800D03*
%TO.N,Net-(U2-XTAL2)*%
X114717400Y-94210400D03*
X112715500Y-98816500D03*
%TO.N,Net-(U2-PA4)*%
X121555700Y-93012100D03*
%TO.N,Net-(BZ1-+)*%
X207955300Y-90321300D03*
%TO.N,Net-(DS1-RS)*%
X137203200Y-105738200D03*
%TO.N,Net-(DS1-E)*%
X154017100Y-105192100D03*
%TO.N,Net-(DS1-DB4)*%
X177412200Y-104587700D03*
%TO.N,Net-(DS1-DB5)*%
X179246500Y-103500000D03*
%TO.N,Net-(DS1-DB6)*%
X179985100Y-101837500D03*
%TO.N,Net-(DS1-DB7)*%
X180600700Y-101037500D03*
%TO.N,Net-(U2-PA0)*%
X158010500Y-90923700D03*
%TO.N,Net-(U2-PA1)*%
X112870900Y-93427700D03*
%TO.N,Net-(U2-PB0)*%
X106637800Y-93909500D03*
%TD*%
%TO.N,GND*%
D25*
X228500000Y-143000000D02*
X226000000Y-140500000D01*
X89710000Y-141500000D02*
X88508300Y-141500000D01*
X64451700Y-141500000D02*
X64451700Y-141875500D01*
X111150000Y-102940600D02*
X111150000Y-103500000D01*
X110350000Y-92784700D02*
X110350000Y-92175000D01*
X202750000Y-140500000D02*
X195250000Y-133000000D01*
X64451700Y-141875500D02*
X65277900Y-142701700D01*
X132000000Y-133250000D02*
X132000000Y-134801700D01*
X170750000Y-133000000D02*
X154500000Y-133000000D01*
X195250000Y-133000000D02*
X177250000Y-133000000D01*
X103636000Y-102203500D02*
X103861200Y-102428700D01*
X90911700Y-141500000D02*
X90911700Y-141124500D01*
X226000000Y-140500000D02*
X202750000Y-140500000D01*
X104127700Y-97837500D02*
X103636000Y-98329200D01*
X115402800Y-97837500D02*
X110350000Y-92784700D01*
X118253200Y-116323800D02*
X111150000Y-109220600D01*
X154500000Y-133000000D02*
X152500000Y-135000000D01*
X132000000Y-133250000D02*
X119500000Y-133250000D01*
X105297200Y-97837500D02*
X110350000Y-92784700D01*
X155750000Y-153500000D02*
X143250000Y-153500000D01*
X63250000Y-141500000D02*
X64451700Y-141500000D01*
X120148800Y-116323800D02*
X120625000Y-116800000D01*
X104687500Y-97837500D02*
X104127700Y-97837500D01*
X152500000Y-135000000D02*
X146000000Y-135000000D01*
X103636000Y-98329200D02*
X103636000Y-102203500D01*
X152250000Y-119500000D02*
X145750000Y-119500000D01*
X87306600Y-142701700D02*
X88508300Y-141500000D01*
X104687500Y-97837500D02*
X105297200Y-97837500D01*
X98786200Y-133250000D02*
X119500000Y-133250000D01*
X116012500Y-97837500D02*
X115402800Y-97837500D01*
X65277900Y-142701700D02*
X87306600Y-142701700D01*
X111150000Y-109220600D02*
X111150000Y-103500000D01*
X90911700Y-141124500D02*
X98786200Y-133250000D01*
X110638100Y-102428700D02*
X111150000Y-102940600D01*
X118253200Y-116323800D02*
X120148800Y-116323800D01*
X89710000Y-141500000D02*
X90911700Y-141500000D01*
X177250000Y-133000000D02*
X170750000Y-133000000D01*
X132198300Y-135000000D02*
X132000000Y-134801700D01*
X146000000Y-135000000D02*
X132198300Y-135000000D01*
X103861200Y-102428700D02*
X110638100Y-102428700D01*
%TO.N,Net-(U1-~{RESET})*%
X120625000Y-118700000D02*
X86070000Y-118700000D01*
X100132500Y-96237500D02*
X81870000Y-114500000D01*
X86070000Y-118700000D02*
X81870000Y-114500000D01*
X104687500Y-96237500D02*
X100132500Y-96237500D01*
%TO.N,+5V*%
X121446600Y-119360400D02*
X122500000Y-118307000D01*
X74250000Y-114500000D02*
X79110400Y-119360400D01*
X122500000Y-118307000D02*
X122500000Y-117750000D01*
X79110400Y-119360400D02*
X121446600Y-119360400D01*
X226420000Y-97500000D02*
X206170000Y-117750000D01*
X206170000Y-117750000D02*
X122500000Y-117750000D01*
%TO.N,Net-(U2-PA2)*%
X155750000Y-148500000D02*
X143250000Y-148500000D01*
X113550000Y-93894900D02*
X113550100Y-93894900D01*
X113550000Y-92175000D02*
X113550000Y-93894900D01*
%TO.N,Net-(U2-XTAL1)*%
X184620000Y-98500000D02*
X180678600Y-102441400D01*
X110596800Y-99437500D02*
X104687500Y-99437500D01*
X180678600Y-102441400D02*
X113600700Y-102441400D01*
X113600700Y-102441400D02*
X110596800Y-99437500D01*
%TO.N,Net-(U2-PA3)*%
X132000000Y-128250000D02*
X119500000Y-128250000D01*
X114350000Y-93308300D02*
X114242500Y-93415800D01*
X114350000Y-92175000D02*
X114350000Y-93308300D01*
%TO.N,Net-(U2-XTAL2)*%
X114911800Y-94016000D02*
X114717400Y-94210400D01*
X104866500Y-98816500D02*
X104687500Y-98637500D01*
X114911800Y-93455100D02*
X114911800Y-94016000D01*
X115999600Y-92367300D02*
X114911800Y-93455100D01*
X112715500Y-98816500D02*
X104866500Y-98816500D01*
X183367300Y-92367300D02*
X115999600Y-92367300D01*
X189500000Y-98500000D02*
X183367300Y-92367300D01*
%TO.N,Net-(U2-PA4)*%
X152500000Y-130500000D02*
X146000000Y-130500000D01*
X116012500Y-93837500D02*
X116837900Y-93012100D01*
X116837900Y-93012100D02*
X121555700Y-93012100D01*
%TO.N,Net-(U2-PB1)*%
X108243100Y-93241300D02*
X88008700Y-93241300D01*
X88008700Y-93241300D02*
X66750000Y-114500000D01*
X108750000Y-92175000D02*
X108750000Y-92734400D01*
X108750000Y-92734400D02*
X108243100Y-93241300D01*
%TO.N,Net-(BZ1-+)*%
X207955300Y-90321300D02*
X109234000Y-90321300D01*
X109234000Y-90321300D02*
X107950000Y-91605300D01*
X107950000Y-91605300D02*
X107950000Y-92175000D01*
%TO.N,Net-(DS1-RS)*%
X111950000Y-104087500D02*
X113600700Y-105738200D01*
X113600700Y-105738200D02*
X137203200Y-105738200D01*
X111950000Y-103500000D02*
X111950000Y-104087500D01*
%TO.N,Net-(DS1-E)*%
X153961500Y-105136500D02*
X154017100Y-105192100D01*
X112750000Y-104091200D02*
X113795300Y-105136500D01*
X112750000Y-103500000D02*
X112750000Y-104091200D01*
X113795300Y-105136500D02*
X153961500Y-105136500D01*
%TO.N,Net-(DS1-DB4)*%
X114078300Y-104587700D02*
X177412200Y-104587700D01*
X113550000Y-103500000D02*
X113550000Y-104059400D01*
X113550000Y-104059400D02*
X114078300Y-104587700D01*
%TO.N,Net-(DS1-DB5)*%
X114350000Y-103500000D02*
X179246500Y-103500000D01*
%TO.N,Net-(DS1-DB6)*%
X116012500Y-101837500D02*
X179985100Y-101837500D01*
%TO.N,Net-(DS1-DB7)*%
X116012500Y-101037500D02*
X180600700Y-101037500D01*
%TO.N,Net-(U2-PA0)*%
X112641900Y-90923700D02*
X111950000Y-91615600D01*
X158010500Y-90923700D02*
X112641900Y-90923700D01*
X111950000Y-91615600D02*
X111950000Y-92175000D01*
X177250000Y-128500000D02*
X170750000Y-128500000D01*
%TO.N,Net-(U2-PA1)*%
X152250000Y-115000000D02*
X145750000Y-115000000D01*
X112750000Y-93306800D02*
X112870900Y-93427700D01*
X112750000Y-92175000D02*
X112750000Y-93306800D01*
%TO.N,Net-(U2-PB0)*%
X109550000Y-92787000D02*
X109550000Y-92175000D01*
X106637800Y-93909500D02*
X108427500Y-93909500D01*
X108427500Y-93909500D02*
X109550000Y-92787000D01*
%TD*%
M02*
